{
  "asset": {
    "version": "2.0",
    "generator": "Python GLTF Generator"
  },
  "scenes": [
    {
      "nodes": [
        0
      ]
    }
  ],
  "nodes": [
    {
      "mesh": 0
    }
  ],
  "meshes": [
    {
      "primitives": [
        {
          "attributes": {
            "POSITION": 1
          },
          "indices": 0,
          "material": 0
        }
      ]
    }
  ],
  "materials": [
    {
      "pbrMetallicRoughness": {
        "baseColorFactor": [
          0.55,
          0.35,
          1.0,
          1.0
        ],
        "metallicFactor": 0.95,
        "roughnessFactor": 0.08
      }
    }
  ],
  "bufferViews": [
    {
      "buffer": 0,
      "byteOffset": 72,
      "byteLength": 48,
      "target": 34963
    },
    {
      "buffer": 0,
      "byteOffset": 0,
      "byteLength": 72,
      "target": 34962
    }
  ],
  "accessors": [
    {
      "bufferView": 0,
      "byteOffset": 0,
      "componentType": 5123,
      "count": 24,
      "type": "SCALAR"
    },
    {
      "bufferView": 1,
      "byteOffset": 0,
      "componentType": 5126,
      "count": 6,
      "type": "VEC3",
      "max": [
        1.0,
        1.0,
        1.0
      ],
      "min": [
        -1.0,
        -1.0,
        -1.0
      ]
    }
  ],
  "buffers": [
    {
      "byteLength": 120,
      "uri": "data:application/octet-stream;base64,"
    }
  ]
}